<svg viewBox="0 0 87 22"
    xmlns="http://www.w3.org/2000/svg">
    <path d="m0 .04258716v20.92270644h18.6993716v-11.22000002h-5.4096475l-3.59722985 3.33582572h5.68871265v1.459266 3.0890826h-12.06354406v-14.25155964h11.74633336l3.5811686-3.3353211z"/>
    <path d="m35.5886345.04258716v20.92270644h18.6988697v-11.22000002h-5.4447816l-3.596728 3.33582572h5.7238468v1.459266 3.0890826h-12.0635441v-14.25155964h11.7111993l3.5806666-3.3353211z"/>
    <path d="m25.6357966 3.37816055v17.58688075h3.3176628v-20.78394497z"/>
    <path d="m83.0896862 3.30186697v17.66357803h3.3181648v-20.78444959z"/>
    <path d="m59.2275092 21.0054587c0 .0136239 14.6022337 0 14.9214521 0l3.7538276-3.4140367h-14.3472605l14.3472605-13.37559631v-4.03518349h-15.1357701l-3.5395096 3.4140367h14.3472605l-14.3472605 13.3755963z"/>
</svg>
